<svg xmlns="http://www.w3.org/2000/svg" fill="none" viewBox="0 0 24 24"><g clip-path="url(#a)"><path fill="#242429" d="M0 0h24v24H0z"/><path fill="#111111" d="M12 24c6.627 0 12-5.373 12-12S18.627 0 12 0 0 5.373 0 12s5.373 12 12 12Z"/><path fill="#FD0346" fill-rule="evenodd" d="M16.686 17.467a7.2 7.2 0 1 0-9.371 0l-1.563 1.822A9.58 9.58 0 0 1 2.4 12a9.6 9.6 0 1 1 19.2 0 9.58 9.58 0 0 1-3.352 7.29l-1.562-1.823Z" clip-rule="evenodd"/><path fill="#fff" d="M9.487 10.369 8 11.193v-1.034l1.722-1.075h.991v5.452H9.487v-4.167Z"/><path fill="#fff" d="M12 13.294c0-.303.084-.566.252-.79a1.6 1.6 0 0 1 .655-.512 8.18 8.18 0 0 1 .748-.286c.233-.071.456-.173.663-.302.157-.107.235-.233.235-.378v-.698c0-.173-.07-.288-.21-.344-.15-.062-.386-.092-.705-.092-.387 0-.896.07-1.529.21v-.925A8.522 8.522 0 0 1 13.865 9c.66 0 1.15.101 1.47.303.324.201.487.537.487 1.008v.756c0 .285-.087.534-.26.747-.174.211-.4.373-.656.47-.252.107-.51.202-.773.286a2.66 2.66 0 0 0-.68.336c-.162.123-.244.27-.244.437v.277h2.621v.916H12v-1.242Z"/></g><defs><clipPath id="a"><path fill="#fff" d="M0 0h24v24H0z"/></clipPath></defs></svg>
